<mxfile host="app.diagrams.net" modified="2023-07-16T17:08:46.403Z" agent="Mozilla/5.0 (Windows NT 10.0; Win64; x64) AppleWebKit/537.36 (KHTML, like Gecko) Chrome/114.0.0.0 Safari/537.36" version="21.6.2" etag="YkOn6w0D9AV4bhq9gSS2" type="github">
  <diagram name="PÃ¡gina-1" id="DmRJLkc1dj39ojKwF6Vk">
    <mxGraphModel>
      <root>
        <mxCell id="0" />
        <mxCell id="1" parent="0" />
      </root>
    </mxGraphModel>
  </diagram>
</mxfile>
